<svg viewBox="0 -5 512.002 512" xmlns="http://www.w3.org/2000/svg"><path d="m504.5 353.433594c-14.738281 0-22.355469 5.191406-29.074219 9.769531-5.875 4.007813-10.519531 7.167969-20.632812 7.167969s-14.753907-3.160156-20.628907-7.164063c-6.71875-4.582031-14.335937-9.773437-29.074218-9.773437-14.738282 0-22.355469 5.191406-29.074219 9.773437-5.875 4.003907-10.515625 7.164063-20.628906 7.164063-10.109375 0-14.75-3.160156-20.625-7.164063-6.722657-4.582031-14.335938-9.773437-29.074219-9.773437s-22.355469 5.191406-29.074219 9.773437c-5.875 4.003907-10.511719 7.164063-20.625 7.164063s-14.75-3.160156-20.625-7.164063c-6.71875-4.582031-14.335937-9.773437-29.074219-9.773437-14.734374 0-22.351562 5.191406-29.070312 9.773437-5.871094 4.003907-10.511719 7.164063-20.621094 7.164063-10.113281 0-14.75-3.160156-20.625-7.164063-6.71875-4.582031-14.335937-9.773437-29.070312-9.773437-14.738282 0-22.355469 5.191406-29.074219 9.773437-5.875 4.003907-10.515625 7.164063-20.625 7.164063-10.113281 0-14.753906-3.160156-20.628906-7.164063-6.71875-4.582031-14.332031-9.773437-29.070313-9.773437-4.144531 0-7.49999975 3.359375-7.49999975 7.5 0 4.144531 3.35546875 7.5 7.49999975 7.5 10.109375 0 14.75 3.164062 20.625 7.167968 6.71875 4.578126 14.335938 9.769532 29.070313 9.769532 14.738281 0 22.355469-5.191406 29.074219-9.769532 5.875-4.003906 10.515624-7.167968 20.625-7.167968 10.113281 0 14.753906 3.164062 20.625 7.167968 6.722656 4.578126 14.335937 9.769532 29.074218 9.769532 14.738282 0 22.351563-5.191406 29.070313-9.769532 5.871093-4.003906 10.511719-7.167968 20.621093-7.167968 10.113282 0 14.75 3.164062 20.625 7.167968 6.71875 4.578126 14.335938 9.769532 29.074219 9.769532s22.355469-5.191406 29.074219-9.769532c5.871094-4.003906 10.511719-7.167968 20.625-7.167968s14.753906 3.164062 20.625 7.167968c6.722656 4.578126 14.335938 9.769532 29.074219 9.769532s22.355469-5.191406 29.074219-9.769532c5.875-4.003906 10.515624-7.167968 20.628906-7.167968 10.113281 0 14.753906 3.164062 20.628906 7.167968 6.71875 4.578126 14.335938 9.769532 29.074219 9.769532s22.355469-5.191406 29.078125-9.769532c5.875-4.003906 10.515625-7.167968 20.628906-7.167968 4.144531 0 7.5-3.355469 7.5-7.5 0-4.140625-3.355469-7.5-7.5-7.5zm0 0"/><path d="m504.5 469.445312c-14.738281 0-22.355469 5.1875-29.074219 9.769532-5.875 4.003906-10.519531 7.167968-20.632812 7.167968s-14.753907-3.164062-20.628907-7.167968c-6.71875-4.578125-14.335937-9.769532-29.074218-9.769532-14.738282 0-22.355469 5.191407-29.074219 9.769532-5.875 4.003906-10.515625 7.167968-20.628906 7.167968-10.109375 0-14.75-3.164062-20.625-7.167968-6.722657-4.578125-14.335938-9.769532-29.074219-9.769532s-22.355469 5.191407-29.074219 9.769532c-5.875 4.003906-10.511719 7.167968-20.625 7.167968s-14.75-3.164062-20.625-7.167968c-6.71875-4.578125-14.335937-9.769532-29.074219-9.769532-14.734374 0-22.351562 5.191407-29.070312 9.769532-5.871094 4.003906-10.511719 7.164062-20.621094 7.164062-10.113281 0-14.75-3.160156-20.625-7.164062-6.71875-4.578125-14.335937-9.773438-29.074218-9.773438-14.738282 0-22.351563 5.191406-29.074219 9.773438-5.871094 4.003906-10.511719 7.164062-20.625 7.164062-10.109375 0-14.75-3.160156-20.625-7.164062-6.71875-4.578125-14.335938-9.773438-29.070313-9.773438-4.144531 0-7.49999975 3.359375-7.49999975 7.5 0 4.144532 3.35546875 7.5 7.49999975 7.5 10.109375 0 14.75 3.164063 20.625 7.167969 6.71875 4.578125 14.335938 9.769531 29.074219 9.769531s22.351563-5.1875 29.074219-9.769531c5.871094-4.003906 10.511718-7.167969 20.625-7.167969 10.109375 0 14.75 3.164063 20.625 7.167969 6.71875 4.578125 14.335937 9.769531 29.070312 9.769531 14.738282 0 22.351563-5.191406 29.070313-9.769531 5.875-4.003906 10.511719-7.164063 20.621093-7.164063 10.113282 0 14.753907 3.160157 20.625 7.164063 6.722657 4.578125 14.339844 9.773437 29.074219 9.773437 14.738281 0 22.355469-5.191406 29.074219-9.773437 5.875-4.003906 10.511719-7.164063 20.625-7.164063s14.753906 3.160157 20.628906 7.164063c6.71875 4.582031 14.335938 9.773437 29.074219 9.773437 14.734375 0 22.351563-5.191406 29.070313-9.773437 5.875-4.003906 10.515624-7.164063 20.628906-7.164063 10.113281 0 14.753906 3.160157 20.628906 7.164063 6.722656 4.582031 14.339844 9.773437 29.078125 9.773437s22.355469-5.191406 29.074219-9.773437c5.875-4.003906 10.515625-7.164063 20.632812-7.164063 4.140625 0 7.5-3.359374 7.5-7.5 0-4.144531-3.359375-7.5-7.503906-7.5zm0 0"/><path d="m7.5 252.425781c10.113281 0 14.753906 3.160157 20.625 7.164063 6.71875 4.582031 14.335938 9.769531 29.074219 9.769531s22.355469-5.1875 29.074219-9.769531c5.871093-4.003906 10.511718-7.164063 20.625-7.164063 10.109374 0 14.75 3.160157 20.625 7.164063 6.71875 4.582031 14.335937 9.769531 29.074218 9.769531 14.734375 0 22.351563-5.1875 29.066406-9.769531 5.875-4.003906 10.515626-7.164063 20.625-7.164063 10.109376 0 14.75 3.160157 20.625 7.164063 6.71875 4.582031 14.332032 9.769531 29.070313 9.769531s22.355469-5.1875 29.074219-9.769531c5.875-4.003906 10.515625-7.164063 20.625-7.164063 10.113281 0 14.753906 3.160157 20.628906 7.164063 6.71875 4.582031 14.335938 9.769531 29.074219 9.769531 14.734375 0 22.351562-5.1875 29.074219-9.769531 5.871093-4.003906 10.511718-7.164063 20.625-7.164063 10.113281 0 14.753906 3.160157 20.628906 7.164063 6.722656 4.582031 14.339844 9.769531 29.078125 9.769531s22.355469-5.1875 29.074219-9.769531c5.875-4.003906 10.519531-7.164063 20.632812-7.164063 4.140625 0 7.5-3.359375 7.5-7.5 0-4.144531-3.359375-7.5-7.5-7.5-14.738281 0-22.355469 5.1875-29.078125 9.769531-5.875 4.003907-10.515625 7.164063-20.628906 7.164063s-14.753907-3.160156-20.628907-7.164063c-6.722656-4.578124-14.339843-9.769531-29.078124-9.769531-14.738282 0-22.355469 5.1875-29.074219 9.769531-5.875 4.003907-10.515625 7.164063-20.625 7.164063-10.113281 0-14.753907-3.160156-20.628907-7.164063-6.71875-4.578124-14.335937-9.769531-29.074218-9.769531-5.035156 0-9.222656.613281-12.84375 1.59375v-60.386719c9.972656-3.164062 17.222656-12.511718 17.222656-23.523437 0-11.007813-7.25-20.351563-17.222656-23.519531v-19.15625c0-4.144532-3.359375-7.5-7.5-7.5-4.144532 0-7.5 3.355468-7.5 7.5v18h-43.679688v-81.082032h43.679688v35c0 4.144532 3.355468 7.5 7.5 7.5 4.140625 0 7.5-3.355468 7.5-7.5v-36.152343c9.972656-3.167969 17.222656-12.511719 17.222656-23.523438 0-13.605469-11.070312-24.675781-24.675781-24.675781h-58.773438c-13.605469 0-24.675781 11.070312-24.675781 24.679688 0 11.007812 7.246094 20.351562 17.222656 23.519531v83.390625c-9.976562 3.164062-17.222656 12.511718-17.222656 23.519531 0 11.011719 7.246094 20.355469 17.222656 23.523437v60.394532c-3.628906-.984375-7.824218-1.601563-12.875-1.601563-14.734375 0-22.351562 5.191407-29.066406 9.769531-5.875 4.003907-10.515625 7.167969-20.625 7.167969s-14.75-3.164062-20.625-7.167969c-6.71875-4.578124-14.332031-9.769531-29.070312-9.769531-14.738282 0-22.355469 5.191407-29.074219 9.769531-5.875 4.003907-10.511719 7.167969-20.625 7.167969s-14.753907-3.164062-20.625-7.167969c-6.71875-4.578124-14.335938-9.769531-29.074219-9.769531-4.140625 0-7.5 3.355469-7.5 7.5s3.359375 7.5 7.5 7.5zm219.113281-237.421875h58.773438c5.335937 0 9.675781 4.339844 9.675781 9.675782 0 5.335937-4.339844 9.675781-9.675781 9.675781h-58.773438c-5.335937 0-9.675781-4.34375-9.675781-9.675781 0-5.335938 4.339844-9.675782 9.675781-9.675782zm0 130.429688h58.773438c5.335937 0 9.675781 4.34375 9.675781 9.675781 0 5.335937-4.339844 9.675781-9.675781 9.675781h-58.773438c-5.335937 0-9.675781-4.339844-9.675781-9.675781 0-5.332031 4.339844-9.675781 9.675781-9.675781zm7.546875 34.351562h43.679688v66.578125c-.410156.277344-.820313.558594-1.226563.832031-5.875 4.003907-10.515625 7.164063-20.625 7.164063-10.113281 0-14.753906-3.160156-20.625-7.164063-.398437-.269531-.796875-.542968-1.203125-.816406zm0 0"/></svg>