<svg height="512pt" viewBox="0 0 512 512" width="512pt" xmlns="http://www.w3.org/2000/svg"><path d="m271 15c0 8.285156-6.714844 15-15 15s-15-6.714844-15-15 6.714844-15 15-15 15 6.714844 15 15zm0 0"/><path d="m271 497c0 8.285156-6.714844 15-15 15s-15-6.714844-15-15 6.714844-15 15-15 15 6.714844 15 15zm0 0"/><path d="m30 256c0 8.285156-6.714844 15-15 15s-15-6.714844-15-15 6.714844-15 15-15 15 6.714844 15 15zm0 0"/><path d="m512 256c0 8.285156-6.714844 15-15 15s-15-6.714844-15-15 6.714844-15 15-15 15 6.714844 15 15zm0 0"/><path d="m208.109375 19.332031c-2.144531-8-10.371094-12.75-18.371094-10.605469-8.003906 2.144532-12.75 10.367188-10.605469 18.371094 2.140626 8 10.367188 12.75 18.367188 10.605469 8.003906-2.144531 12.753906-10.367187 10.609375-18.371094zm0 0"/><path d="m332.847656 484.898438c-2.144531-8-10.371094-12.75-18.371094-10.605469-8.003906 2.144531-12.75 10.367187-10.609374 18.371093 2.144531 8 10.371093 12.75 18.371093 10.605469 8.003907-2.144531 12.75-10.367187 10.609375-18.371093zm0 0"/><path d="m37.695312 314.484375c-2.144531-8-10.371093-12.75-18.371093-10.605469-8.003907 2.144532-12.75 10.367188-10.605469 18.371094 2.140625 8 10.367188 12.75 18.367188 10.605469 8.003906-2.144531 12.753906-10.367188 10.609374-18.371094zm0 0"/><path d="m503.261719 189.746094c-2.144531-8-10.371094-12.75-18.371094-10.605469-8.003906 2.144531-12.75 10.367187-10.605469 18.371094 2.140625 8 10.367188 12.75 18.367188 10.605469 8.003906-2.144532 12.753906-10.367188 10.609375-18.371094zm0 0"/><path d="m148.488281 39.785156c-4.144531-7.171875-13.316406-9.632812-20.492187-5.488281-7.171875 4.140625-9.632813 13.316406-5.488282 20.488281 4.140626 7.175782 13.316407 9.632813 20.488282 5.492188 7.175781-4.144532 9.632812-13.316406 5.492187-20.492188zm0 0"/><path d="m389.480469 457.199219c-4.140625-7.175781-13.316407-9.632813-20.488281-5.488281-7.175782 4.140624-9.632813 13.3125-5.492188 20.488281 4.144531 7.175781 13.316406 9.632812 20.492188 5.492187 7.171874-4.144531 9.628906-13.316406 5.488281-20.492187zm0 0"/><path d="m60.277344 368.992188c-4.144532-7.175782-13.316406-9.632813-20.492188-5.492188-7.171875 4.144531-9.628906 13.316406-5.488281 20.492188 4.140625 7.171874 13.316406 9.628906 20.488281 5.488281 7.175782-4.140625 9.632813-13.316407 5.492188-20.488281zm0 0"/><path d="m477.691406 127.996094c-4.144531-7.171875-13.316406-9.632813-20.492187-5.488282-7.171875 4.140626-9.632813 13.316407-5.488281 20.488282 4.140624 7.175781 13.316406 9.632812 20.488281 5.492187 7.175781-4.144531 9.632812-13.316406 5.492187-20.492187zm0 0"/><path d="m96.191406 74.980469c-5.855468-5.855469-15.355468-5.855469-21.210937 0-5.859375 5.859375-5.859375 15.355469 0 21.214843 5.855469 5.855469 15.355469 5.855469 21.210937 0 5.859375-5.859374 5.859375-15.355468 0-21.214843zm0 0"/><path d="m437.015625 415.804688c-5.859375-5.855469-15.355469-5.855469-21.214844 0-5.859375 5.859374-5.859375 15.355468 0 21.214843s15.355469 5.859375 21.214844 0c5.855469-5.859375 5.855469-15.355469 0-21.214843zm0 0"/><path d="m96.191406 415.804688c-5.859375-5.859376-15.355468-5.859376-21.214844 0-5.859374 5.859374-5.859374 15.355468 0 21.214843 5.859376 5.855469 15.355469 5.855469 21.214844 0 5.855469-5.859375 5.855469-15.355469 0-21.214843zm0 0"/><path d="m437.015625 74.984375c-5.859375-5.859375-15.355469-5.859375-21.214844 0-5.855469 5.855469-5.855469 15.351563 0 21.210937 5.859375 5.859376 15.355469 5.859376 21.214844 0 5.859375-5.859374 5.859375-15.355468 0-21.210937zm0 0"/><path d="m54.785156 122.511719c-7.175781-4.144531-16.347656-1.683594-20.492187 5.488281-4.140625 7.175781-1.683594 16.347656 5.492187 20.492188 7.171875 4.140624 16.347656 1.683593 20.488282-5.492188 4.144531-7.171875 1.683593-16.347656-5.488282-20.488281zm0 0"/><path d="m472.203125 363.519531c-7.175781-4.140625-16.347656-1.683593-20.492187 5.492188-4.140626 7.175781-1.683594 16.347656 5.492187 20.488281 7.171875 4.144531 16.347656 1.6875 20.488281-5.488281 4.144532-7.175781 1.683594-16.347657-5.488281-20.492188zm0 0"/><path d="m142.988281 451.726562c-7.175781-4.144531-16.347656-1.683593-20.492187 5.488282-4.140625 7.175781-1.683594 16.347656 5.492187 20.492187 7.175781 4.140625 16.347657 1.683594 20.488281-5.492187 4.144532-7.171875 1.6875-16.347656-5.488281-20.488282zm0 0"/><path d="m384 34.308594c-7.175781-4.140625-16.347656-1.683594-20.488281 5.488281-4.144531 7.175781-1.6875 16.347656 5.488281 20.492187 7.175781 4.140626 16.347656 1.683594 20.488281-5.492187 4.144531-7.171875 1.6875-16.347656-5.488281-20.488281zm0 0"/><path d="m27.089844 179.132812c-8.003906-2.144531-16.226563 2.605469-18.371094 10.605469-2.144531 8.003907 2.605469 16.226563 10.605469 18.371094 8.003906 2.144531 16.226562-2.605469 18.371093-10.605469 2.144532-8.003906-2.605468-16.226562-10.605468-18.371094zm0 0"/><path d="m492.652344 303.890625c-8.003906-2.140625-16.226563 2.605469-18.371094 10.609375-2.144531 8 2.605469 16.226562 10.605469 18.371094 8.003906 2.140625 16.226562-2.605469 18.371093-10.609375 2.144532-8-2.605468-16.226563-10.605468-18.371094zm0 0"/><path d="m197.488281 474.292969c-8-2.140625-16.226562 2.605469-18.367187 10.609375-2.144532 8 2.601562 16.226562 10.605468 18.371094 8 2.140624 16.226563-2.605469 18.371094-10.609376 2.144532-8-2.605468-16.226562-10.609375-18.371093zm0 0"/><path d="m322.25 8.730469c-8-2.144531-16.226562 2.605469-18.371094 10.609375-2.144531 8 2.605469 16.226562 10.609375 18.367187 8 2.144531 16.226563-2.601562 18.367188-10.605469 2.144531-8-2.601563-16.226562-10.605469-18.371093zm0 0"/><path d="m256 60c-108.074219 0-196 87.925781-196 196s87.925781 196 196 196 196-87.925781 196-196-87.925781-196-196-196zm-139.421875 106h124.421875c16.542969 0 30 13.457031 30 30s-13.457031 30-30 30h-86c-8.285156 0-15 6.714844-15 15s6.714844 15 15 15c8.269531 0 15 6.730469 15 15s-6.730469 15-15 15h-62.277344c-1.785156-9.734375-2.722656-19.757812-2.722656-30 0-33.148438 9.773438-64.054688 26.578125-90zm-15.351563 150h53.773438c24.8125 0 45-20.1875 45-45 0-5.257812-.90625-10.308594-2.570312-15h43.570312c33.085938 0 60-26.914062 60-60s-26.914062-60-60-60h-99.585938c29.816407-28.484375 70.195313-46 114.585938-46 91.53125 0 166 74.46875 166 166 0 10.242188-.9375 20.265625-2.722656 30h-123.277344c-24.8125 0-45 20.1875-45 45s20.1875 45 45 45h74.585938c-29.816407 28.484375-70.195313 46-114.585938 46-70.386719 0-130.671875-44.035156-154.773438-106zm294.195313 30h-99.421875c-8.269531 0-15-6.730469-15-15s6.730469-15 15-15h114.773438c-4.109376 10.5625-9.265626 20.605469-15.351563 30zm0 0"/></svg>