<svg id="Layer_3" enable-background="new 0 0 64 64" height="512" viewBox="0 0 64 64" width="512" xmlns="http://www.w3.org/2000/svg"><path d="m55 15c-.076 0-.151.014-.228.016-.906-4.01-4.492-7.016-8.772-7.016-.801 0-1.575.115-2.315.313-2.171-4.462-6.681-7.313-11.685-7.313-5.03 0-9.522 2.841-11.691 7.311-.738-.196-1.51-.311-2.309-.311-4.28 0-7.866 3.006-8.772 7.016-.077-.002-.152-.016-.228-.016-4.411 0-8 3.589-8 8s3.589 8 8 8h15v-2h-15c-3.309 0-6-2.691-6-6s2.691-6 6-6c0 2.04.701 4.038 1.975 5.626l1.561-1.252c-1.005-1.252-1.536-2.765-1.536-4.374 0-3.859 3.14-7 7-7s7 3.141 7 7c0 1.609-.531 3.122-1.535 4.374l1.561 1.252c1.273-1.588 1.974-3.586 1.974-5.626 0-3.453-1.957-6.453-4.818-7.962 1.863-3.696 5.618-6.038 9.818-6.038 4.179 0 7.953 2.347 9.818 6.038-2.861 1.508-4.818 4.509-4.818 7.962h2c0-3.859 3.14-7 7-7s7 3.141 7 7c0 1.609-.531 3.122-1.535 4.374l1.561 1.252c1.273-1.588 1.974-3.586 1.974-5.626 3.309 0 6 2.691 6 6s-2.691 6-6 6h-14v2h14c4.411 0 8-3.589 8-8s-3.589-8-8-8z"/><path d="m36.87 23.507c-.177-.314-.51-.507-.87-.507h-6c-.379 0-.725.214-.895.553l-4 8c-.155.31-.138.678.044.973s.504.474.851.474h3.719l-1.689 6.758c-.113.454.103.926.521 1.136.143.072.297.106.449.106.292 0 .58-.128.774-.367l9-11c.245-.299.295-.712.13-1.062-.166-.348-.518-.571-.904-.571h-3.234l2.091-3.485c.186-.309.191-.694.013-1.008zm-.98 6.493-4.837 5.912.917-3.67c.075-.299.007-.615-.182-.857-.189-.243-.48-.385-.788-.385h-3.382l3-6h3.616l-2.091 3.485c-.186.309-.19.693-.013 1.008.177.314.51.507.87.507z"/><path d="m33 48.343v-.343c0-.553-.448-1-1-1s-1 .447-1 1v.343c0 2.091-.814 4.057-2.293 5.536-1.085 1.085-1.707 2.587-1.707 4.121 0 2.757 2.243 5 5 5s5-2.243 5-5c0-1.534-.622-3.036-1.707-4.121-1.479-1.48-2.293-3.445-2.293-5.536zm-1 12.657c-1.654 0-3-1.346-3-3 0-1.008.409-1.994 1.121-2.707.777-.777 1.408-1.661 1.879-2.619.471.958 1.102 1.842 1.879 2.619.712.713 1.121 1.699 1.121 2.707 0 1.654-1.346 3-3 3z"/><path d="m43 38.343v-.343c0-.553-.448-1-1-1s-1 .447-1 1v.343c0 2.091-.814 4.057-2.293 5.536-1.085 1.085-1.707 2.587-1.707 4.121 0 2.757 2.243 5 5 5s5-2.243 5-5c0-1.534-.622-3.036-1.707-4.121-1.479-1.48-2.293-3.445-2.293-5.536zm-1 12.657c-1.654 0-3-1.346-3-3 0-1.008.409-1.994 1.121-2.707.777-.777 1.408-1.661 1.879-2.619.471.958 1.102 1.842 1.879 2.619.712.713 1.121 1.699 1.121 2.707 0 1.654-1.346 3-3 3z"/><path d="m55 45.343v-.343c0-.553-.448-1-1-1s-1 .447-1 1v.343c0 2.091-.814 4.057-2.293 5.536-1.085 1.085-1.707 2.587-1.707 4.121 0 2.757 2.243 5 5 5s5-2.243 5-5c0-1.534-.622-3.036-1.707-4.121-1.479-1.48-2.293-3.445-2.293-5.536zm-1 12.657c-1.654 0-3-1.346-3-3 0-1.008.409-1.994 1.121-2.707.777-.777 1.408-1.661 1.879-2.619.471.958 1.102 1.842 1.879 2.619.712.713 1.121 1.699 1.121 2.707 0 1.654-1.346 3-3 3z"/><path d="m25.293 43.879c-1.479-1.48-2.293-3.445-2.293-5.536v-.343c0-.553-.448-1-1-1s-1 .447-1 1v.343c0 2.091-.814 4.057-2.293 5.536-1.085 1.085-1.707 2.587-1.707 4.121 0 2.757 2.243 5 5 5s5-2.243 5-5c0-1.534-.622-3.036-1.707-4.121zm-3.293 7.121c-1.654 0-3-1.346-3-3 0-1.008.409-1.994 1.121-2.707.777-.777 1.408-1.661 1.879-2.619.471.958 1.102 1.842 1.879 2.619.712.713 1.121 1.699 1.121 2.707 0 1.654-1.346 3-3 3z"/><path d="m11 45.343v-.343c0-.553-.448-1-1-1s-1 .447-1 1v.343c0 2.091-.814 4.057-2.293 5.536-1.085 1.085-1.707 2.587-1.707 4.121 0 2.757 2.243 5 5 5s5-2.243 5-5c0-1.534-.622-3.036-1.707-4.121-1.479-1.48-2.293-3.445-2.293-5.536zm-1 12.657c-1.654 0-3-1.346-3-3 0-1.008.409-1.994 1.121-2.707.777-.777 1.408-1.661 1.879-2.619.471.958 1.102 1.842 1.879 2.619.712.713 1.121 1.699 1.121 2.707 0 1.654-1.346 3-3 3z"/></svg>