<svg height="512pt" viewBox="0 -61 512 512" width="512pt" xmlns="http://www.w3.org/2000/svg"><path d="m63.460938 84.628906-52.371094 23.5c-6.738282 3.03125-11.089844 9.75-11.089844 17.140625 0 7.378907 4.351562 14.109375 11.089844 17.140625l38.929687 17.46875.320313.152344 89.410156-40.140625zm0 0"/><path d="m175.839844 136.570312-88.878906 39.890626 46.808593 21.019531 86.929688-40.179688zm0 0"/><path d="m256.457031 173.828125-86.40625 39.933594 78.257813 35.128906c2.449218 1.097656 5.070312 1.648437 7.699218 1.648437 2.621094 0 5.238282-.550781 7.679688-1.648437l78.71875-35.339844zm0 0"/><path d="m219.796875 83.949219-43.769531 19.652343-76.289063-35.261718 42.691407-19.160156zm0 0"/><path d="m300.738281 120.308594-44.269531 20.460937-44.351562-20.488281 44.28125-19.890625h.007812zm0 0"/><path d="m336.996094 136.609375-44.777344 20.691406 86.46875 39.960938 46.679688-20.953125zm0 0"/><path d="m333.40625 32.941406-76.988281 34.570313-77.367188-34.773438 69.269531-31.089843c4.890626-2.199219 10.488282-2.199219 15.378907 0zm0 0"/><path d="m412.738281 68.550781-75.921875 35.089844-43.796875-19.679687 77.019531-34.582032zm0 0"/><path d="m511.996094 125.269531c0 7.378907-4.347656 14.109375-11.078125 17.128907l-38.941407 17.480468h-.007812l-88.890625-39.949218 75.929687-35.089844 51.898438 23.289062c6.742188 3.03125 11.089844 9.75 11.089844 17.140625zm0 0"/><path d="m500.90625 177.359375-5.414062-2.429687-231.378907 103.859374c-2.4375 1.097657-5.058593 1.648438-7.683593 1.648438-2.621094 0-5.246094-.550781-7.691407-1.648438l-231.800781-104.054687-5.847656 2.625c-6.730469 3.03125-11.089844 9.75-11.089844 17.140625 0 7.378906 4.351562 14.109375 11.089844 17.128906l237.226562 106.492188c2.441406 1.097656 5.0625 1.648437 7.679688 1.648437 2.621094 0 5.25-.550781 7.691406-1.648437l237.226562-106.492188c6.730469-3.019531 11.082032-9.75 11.082032-17.128906 0-7.390625-4.347656-14.109375-11.089844-17.140625zm0 0"/><path d="m500.910156 247.59375-6.027344-2.707031-230.769531 103.589843c-2.4375 1.097657-5.058593 1.648438-7.683593 1.648438-2.621094 0-5.246094-.550781-7.691407-1.648438l-231.191406-103.78125-6.457031 2.902344c-6.734375 3.023438-11.08593775 9.75-11.08593775 17.132813 0 7.386719 4.35156275 14.109375 11.08984375 17.136719l237.214844 106.484374c2.445312 1.101563 5.070312 1.648438 7.695312 1.648438 2.621094 0 5.242188-.550781 7.683594-1.644531l237.226562-106.492188c6.734376-3.023437 11.085938-9.75 11.085938-17.132812 0-7.382813-4.351562-14.109375-11.089844-17.136719zm0 0"/></svg>