<svg height="480pt" viewBox="0 -8 480 480" width="480pt" xmlns="http://www.w3.org/2000/svg"><path d="m480 408c-.035156-30.914062-25.085938-55.964844-56-56h-56v-72c-.101562-64.980469-48.828125-119.597656-113.375-127.089844-6.71875-39.433594-39.207031-69.367187-79.0625-72.839844-39.851562-3.472656-77.027344 20.390626-90.46875 58.070313-13.4375 37.679687.25 79.679687 33.304688 102.210937-4.210938 12.796876-6.371094 26.175782-6.398438 39.648438v72h-56c-30.929688 0-56 25.070312-56 56s25.070312 56 56 56c.539062.003906 1.074219-.050781 1.601562-.160156l198.285157-39.65625 166.296875 39.601562c.59375.140625 1.203125.210938 1.816406.214844 30.910156-.039062 55.960938-25.089844 56-56zm-262.199219-104 2.398438-16h39.535156l2.402344 16zm-89.800781-16h32v16h-32zm48 24v-45.65625l28.65625 17.65625-3.441406 22.648438-25.214844 12.488281zm102.785156-5.328125-3.441406-22.648437 28.65625-17.679688v52.800781zm41.214844-18.671875h32v16h-32zm31.59375-16h-31.59375v-20c0-2.898438-1.570312-5.570312-4.101562-6.984375s-5.628907-1.347656-8.097657.175781l-43.519531 26.863282c-.105469 0-.183594-.054688-.28125-.054688h-48c-.097656 0-.175781.054688-.28125.054688l-43.519531-26.863282c-2.46875-1.523437-5.566407-1.589844-8.097657-.175781s-4.101562 4.085937-4.101562 6.984375v20h-31.59375c4.222656-58.542969 52.898438-103.910156 111.59375-104 2.257812 0 4.464844.207031 6.695312.335938h.433594c17.765625 1.121093 35.003906 6.492187 50.261719 15.664062h-9.390625c-4.417969 0-8 3.582031-8 8s3.582031 8 8 8h30.230469c19.566406 19.101562 31.4375 44.722656 33.363281 72zm-255.59375-104c-.007812-36.675781 27.546875-67.496094 63.996094-71.574219 36.445312-4.074219 70.132812 19.894531 78.226562 55.664063-48.746094.730468-92.847656 29.089844-113.734375 73.140625-17.886719-13.601563-28.417969-34.757813-28.488281-57.230469zm-80 240c-.003906-2.6875.265625-5.367188.800781-8h39.199219c4.417969 0 8-3.582031 8-8s-3.582031-8-8-8h-31.792969c7.492188-10.035156 19.269531-15.964844 31.792969-16h88c4.417969 0 8-3.582031 8-8s-3.582031-8-8-8h-16v-32h32v12c0 4.417969 3.582031 8 8 8 1.226562.011719 2.4375-.261719 3.535156-.800781l38.863282-19.199219h15.203124l-32.355468 51.761719c-2.339844 3.753906-1.195313 8.695312 2.5625 11.039062 3.753906 2.339844 8.699218 1.195313 11.039062-2.5625l31-49.597656 10.632813 31.886719c1.394531 4.199218 5.929687 6.46875 10.128906 5.074218 4.195313-1.398437 6.46875-5.933593 5.070313-10.128906l-12.582032-37.472656h18.542969l38.824219 19.199219c1.097656.539062 2.308594.8125 3.535156.800781 4.417969 0 8-3.582031 8-8v-12h32v32h-56c-4.417969 0-8 3.582031-8 8s3.582031 8 8 8h128c5.332031-.003906 10.609375 1.0625 15.519531 3.136719l-384 76.800781c-21.878906-.265625-39.484375-18.058594-39.519531-39.9375zm408.65625 39.9375-131.265625-31.25 162.546875-32.511719c5.203125 6.855469 8.035156 15.21875 8.0625 23.824219-.027344 21.816406-17.53125 39.585938-39.34375 39.945312zm0 0"/><path d="m256 184h-8c-4.417969 0-8 3.582031-8 8s3.582031 8 8 8h8c4.417969 0 8-3.582031 8-8s-3.582031-8-8-8zm0 0"/><path d="m88 400h8c4.417969 0 8-3.582031 8-8s-3.582031-8-8-8h-8c-4.417969 0-8 3.582031-8 8s3.582031 8 8 8zm0 0"/><path d="m38.398438 243.472656c2.210937 3.824219 7.101562 5.136719 10.929687 2.925782l27.71875-16c3.792969-2.222657 5.082031-7.089844 2.882813-10.898438-2.199219-3.808594-7.058594-5.128906-10.882813-2.957031l-27.71875 16c-3.828125 2.210937-5.136719 7.101562-2.929687 10.929687zm0 0"/><path d="m263 112.542969c1.40625.003906 2.785156-.367188 4-1.070313l27.71875-16c3.796875-2.226562 5.082031-7.09375 2.882812-10.902344-2.199218-3.808593-7.058593-5.128906-10.882812-2.953124l-27.71875 16c-3.136719 1.808593-4.664062 5.5-3.726562 8.996093.9375 3.5 4.105468 5.929688 7.726562 5.929688zm0 0"/><path d="m101.601562 73.007812c2.207032 3.828126 7.101563 5.140626 10.929688 2.933594 3.828125-2.210937 5.140625-7.105468 2.933594-10.933594l-16-27.703124c-2.210938-3.828126-7.105469-5.140626-10.933594-2.933594-3.828125 2.210937-5.140625 7.105468-2.929688 10.933594zm0 0"/><path d="m191.054688 62.511719c.679687.1875 1.378906.28125 2.082031.28125 3.617187-.007813 6.777343-2.441407 7.710937-5.9375l8.289063-30.902344c1.144531-4.269531-1.386719-8.65625-5.65625-9.800781-4.269531-1.144532-8.65625 1.386718-9.800781 5.65625l-8.28125 30.910156c-1.136719 4.265625 1.394531 8.648438 5.65625 9.792969zm0 0"/><path d="m25.808594 138.328125 30.902344 8.28125c.679687.183594 1.378906.28125 2.082031.277344 3.957031-.074219 7.265625-3.03125 7.78125-6.957031.511719-3.925782-1.921875-7.636719-5.726563-8.730469l-30.902344-8.328125c-4.261718-1.117188-8.621093 1.417968-9.761718 5.671875-1.136719 4.253906 1.375 8.625 5.625 9.785156zm0 0"/><path d="m190.625 145.375c3.136719 3.03125 8.128906 2.988281 11.214844-.097656 3.085937-3.085938 3.128906-8.074219.097656-11.214844-18.746094-18.738281-49.128906-18.738281-67.875 0-3.03125 3.140625-2.988281 8.128906.097656 11.214844 3.085938 3.085937 8.078125 3.128906 11.214844.097656 12.667969-12.066406 32.582031-12.066406 45.25 0zm0 0"/><path d="m328 64c8.835938 0 16 7.164062 16 16 0 4.417969 3.582031 8 8 8s8-3.582031 8-8c0-8.835938 7.164062-16 16-16 4.417969 0 8-3.582031 8-8s-3.582031-8-8-8c-9.191406-.003906-17.9375 3.953125-24 10.855469-6.0625-6.902344-14.808594-10.859375-24-10.855469-4.417969 0-8 3.582031-8 8s3.582031 8 8 8zm0 0"/><path d="m376 128c0 4.417969 3.582031 8 8 8 8.835938 0 16 7.164062 16 16 0 4.417969 3.582031 8 8 8s8-3.582031 8-8c0-8.835938 7.164062-16 16-16 4.417969 0 8-3.582031 8-8s-3.582031-8-8-8c-9.191406-.003906-17.9375 3.953125-24 10.855469-6.0625-6.902344-14.808594-10.859375-24-10.855469-4.417969 0-8 3.582031-8 8zm0 0"/><path d="m416 16c8.835938 0 16 7.164062 16 16 0 4.417969 3.582031 8 8 8s8-3.582031 8-8c0-8.835938 7.164062-16 16-16 4.417969 0 8-3.582031 8-8s-3.582031-8-8-8c-9.191406-.00390625-17.9375 3.953125-24 10.855469-6.0625-6.902344-14.808594-10.85937525-24-10.855469-4.417969 0-8 3.582031-8 8s3.582031 8 8 8zm0 0"/></svg>