<?xml version="1.0" encoding="iso-8859-1"?>
<!-- Generator: Adobe Illustrator 19.0.0, SVG Export Plug-In . SVG Version: 6.00 Build 0)  -->
<svg version="1.1" id="Capa_1" xmlns="http://www.w3.org/2000/svg" xmlns:xlink="http://www.w3.org/1999/xlink" x="0px" y="0px"
	 viewBox="0 0 510.935 510.935" style="enable-background:new 0 0 510.935 510.935;" xml:space="preserve">
<g>
	<g>
		<g>
			<path d="M254.935,0C113.914,0.294-0.196,114.801,0,255.822s114.623,255.21,255.645,255.112s255.29-114.446,255.29-255.467
				C510.628,114.296,396.106,0.012,254.935,0z M254.935,493.867c-131.595-0.294-238.064-107.16-237.868-238.755
				S124.049,16.968,255.645,17.066s238.223,106.805,238.223,238.401C493.574,387.218,386.686,493.867,254.935,493.867z"/>
			<path d="M92.801,126.934c0-4.713-3.821-8.533-8.533-8.533s-8.533,3.82-8.533,8.533c-0.002,9.239,0.928,18.455,2.775,27.508
				c0.81,3.969,4.299,6.821,8.35,6.825c0.577-0.001,1.152-0.06,1.717-0.175c2.217-0.452,4.164-1.767,5.411-3.655
				c1.247-1.888,1.693-4.195,1.239-6.411C93.612,143.096,92.8,135.025,92.801,126.934z"/>
			<path d="M135.922,240.142L135.922,240.142c22.544,15.234,49.137,23.359,76.346,23.325c4.713,0,8.533-3.82,8.533-8.533
				c0-4.713-3.821-8.533-8.533-8.533c-8.089,0.003-16.158-0.809-24.083-2.425c-7.683-1.571-15.191-3.902-22.412-6.958
				c-14.194-6.005-27.091-14.702-37.979-25.609c-5.416-5.421-10.305-11.345-14.6-17.692c-2.642-3.903-7.947-4.925-11.85-2.283
				c-3.903,2.642-4.925,7.947-2.283,11.85C108.88,217.811,121.393,230.323,135.922,240.142z"/>
			<path d="M425.701,349.041c-2.891-0.965-6.078-0.313-8.358,1.708c-2.281,2.022-3.31,5.107-2.7,8.093h0
				c1.614,7.929,2.426,16,2.425,24.092c0,4.713,3.82,8.533,8.533,8.533s8.533-3.82,8.533-8.533
				c0.002-9.239-0.928-18.455-2.775-27.508C430.749,352.439,428.592,350.005,425.701,349.041z"/>
			<path d="M394.147,286.392c-12.447-12.455-27.182-22.39-43.396-29.258c-16.818-7.104-34.893-10.754-53.15-10.733
				c-4.713,0-8.533,3.82-8.533,8.533c0,4.713,3.82,8.533,8.533,8.533c8.089-0.003,16.158,0.809,24.083,2.425
				c7.683,1.571,15.191,3.902,22.412,6.958c14.194,6.005,27.091,14.701,37.979,25.609c5.416,5.421,10.305,11.345,14.6,17.692
				c1.709,2.525,4.635,3.946,7.676,3.728c3.041-0.218,5.735-2.041,7.067-4.783s1.1-5.987-0.609-8.512
				C405.908,299.34,400.329,292.579,394.147,286.392z"/>
			<path d="M68.53,294.392c-6.747-4.466-13.027-9.6-18.746-15.325c-3.336-3.314-8.723-3.307-12.049,0.017s-3.337,8.712-0.025,12.049
				c6.531,6.536,13.705,12.396,21.412,17.492c2.543,1.681,5.789,1.877,8.515,0.516c2.727-1.362,4.52-4.075,4.704-7.117
				C72.526,298.982,71.073,296.072,68.53,294.392z"/>
			<path d="M230.802,291.134L230.802,291.134c3.299-3.34,3.282-8.718-0.039-12.036s-8.699-3.332-12.036-0.03
				c-5.716,5.723-11.995,10.855-18.742,15.317c-6.543,4.321-13.498,7.984-20.763,10.933c-21.487,8.691-45.033,10.969-67.788,6.558
				c-4.622-0.89-9.091,2.132-9.988,6.752c-0.897,4.621,2.118,9.094,6.738,9.998C152.751,337.34,198.73,323.281,230.802,291.134z"/>
			<path d="M472.159,218.734c-6.531-6.536-13.705-12.396-21.412-17.492c-2.543-1.681-5.789-1.877-8.515-0.516
				c-2.727,1.362-4.52,4.075-4.704,7.117c-0.184,3.042,1.269,5.952,3.811,7.632l0,0c6.747,4.466,13.027,9.601,18.746,15.325
				c3.337,3.306,8.718,3.294,12.04-0.026C475.448,227.454,475.463,222.073,472.159,218.734z"/>
			<path d="M279.068,218.734c-3.304,3.339-3.288,8.72,0.034,12.04c3.323,3.32,8.703,3.332,12.04,0.026
				c5.716-5.723,11.995-10.854,18.742-15.316c6.543-4.321,13.498-7.984,20.763-10.933c21.487-8.691,45.033-10.969,67.788-6.558
				c4.622,0.89,9.091-2.132,9.988-6.752s-2.118-9.094-6.738-9.998c-25.997-5.035-52.896-2.433-77.446,7.492
				c-8.314,3.373-16.272,7.563-23.758,12.508C292.773,206.338,285.599,212.198,279.068,218.734z"/>
			<path d="M151.018,414.642L151.018,414.642c-7.926,1.616-15.994,2.429-24.083,2.425c-4.713,0-8.533,3.82-8.533,8.533
				s3.82,8.533,8.533,8.533c9.24,0.004,18.456-0.926,27.508-2.775c2.986-0.612,5.419-2.77,6.382-5.662
				c0.963-2.892,0.31-6.078-1.712-8.358C157.09,415.058,154.004,414.03,151.018,414.642z"/>
			<path d="M254.935,289.067c-2.263-0.001-4.434,0.898-6.035,2.499c-1.6,1.6-2.499,3.771-2.499,6.035
				c0.001,8.092-0.811,16.163-2.425,24.092c-3.13,15.271-9.235,29.777-17.967,42.692c-8.607,12.722-19.566,23.683-32.287,32.292
				c-2.529,1.706-3.955,4.632-3.74,7.675c0.215,3.043,2.039,5.74,4.783,7.072c2.744,1.333,5.991,1.099,8.516-0.614
				c37.668-25.354,60.236-67.802,60.187-113.208c0.001-2.263-0.898-4.434-2.499-6.035
				C259.369,289.965,257.198,289.066,254.935,289.067z"/>
			<path d="M357.13,95.4c0.578-0.001,1.155-0.06,1.721-0.175c7.926-1.616,15.995-2.428,24.083-2.425
				c4.713,0,8.533-3.821,8.533-8.533s-3.82-8.533-8.533-8.533c-9.239-0.004-18.456,0.926-27.508,2.775
				c-4.288,0.879-7.216,4.86-6.777,9.215C349.089,92.08,352.753,95.396,357.13,95.4z"/>
			<path d="M298.464,127.792c5.416-5.419,11.337-10.308,17.683-14.6c2.529-1.706,3.955-4.632,3.74-7.675
				c-0.215-3.043-2.039-5.74-4.783-7.072c-2.744-1.333-5.991-1.099-8.516,0.614c-37.668,25.354-60.236,67.802-60.188,113.208
				c0,4.713,3.82,8.533,8.533,8.533s8.533-3.821,8.533-8.533c-0.001-8.092,0.811-16.163,2.425-24.092
				c3.13-15.271,9.235-29.777,17.967-42.692C288.155,139.136,293.045,133.212,298.464,127.792z"/>
			<path d="M306.205,438.917c-3.938-2.579-9.22-1.496-11.825,2.425c-4.459,6.75-9.589,13.032-15.313,18.75
				c-3.312,3.338-3.301,8.726,0.025,12.049c3.326,3.324,8.714,3.332,12.049,0.017c6.534-6.534,12.392-13.709,17.488-21.417
				C311.222,446.806,310.137,441.515,306.205,438.917z"/>
			<path d="M321.13,324.242c-6.867-16.916-17.065-32.279-29.987-45.175c-3.336-3.314-8.723-3.307-12.049,0.017
				c-3.326,3.324-3.337,8.712-0.025,12.049c5.723,5.719,10.855,12.001,15.317,18.75c8.588,13.017,14.53,27.597,17.487,42.908
				c2.917,15.074,2.917,30.568,0,45.642c-0.43,2.222,0.04,4.525,1.307,6.4c1.268,1.875,3.228,3.17,5.451,3.6
				c0.537,0.106,1.082,0.159,1.629,0.158c4.083-0.006,7.591-2.901,8.371-6.908C333.675,375.688,331.07,348.787,321.13,324.242
				L321.13,324.242z"/>
			<path d="M203.664,70.95c3.936,2.592,9.227,1.507,11.825-2.425c4.459-6.75,9.59-13.032,15.313-18.75
				c3.3-3.34,3.283-8.718-0.038-12.036c-3.321-3.319-8.699-3.332-12.036-0.03c-6.534,6.534-12.392,13.709-17.488,21.417
				C198.647,63.061,199.732,68.352,203.664,70.95z"/>
			<path d="M188.739,185.625c6.867,16.916,17.065,32.279,29.987,45.175c3.337,3.306,8.718,3.294,12.04-0.026
				s3.338-8.701,0.034-12.04c-5.723-5.719-10.854-12.001-15.316-18.75c-8.588-13.017-14.53-27.597-17.487-42.908
				c-2.917-15.074-2.917-30.568,0-45.642c0.896-4.627-2.128-9.104-6.755-10.001c-4.627-0.897-9.105,2.125-10.004,6.751
				C176.195,134.18,178.801,161.08,188.739,185.625L188.739,185.625z"/>
		</g>
	</g>
</g>
<g>
</g>
<g>
</g>
<g>
</g>
<g>
</g>
<g>
</g>
<g>
</g>
<g>
</g>
<g>
</g>
<g>
</g>
<g>
</g>
<g>
</g>
<g>
</g>
<g>
</g>
<g>
</g>
<g>
</g>
</svg>
